<svg xmlns="http://www.w3.org/2000/svg" viewBox="0 0 1024 1024"><defs><linearGradient id="g" x1="0" y1="0" x2="0" y2="1"><stop offset="0" stop-color="#352F8A"/><stop offset="1" stop-color="#16143A"/></linearGradient><clipPath id="c"><rect width="1024" height="1024" rx="230"/></clipPath></defs><g clip-path="url(#c)"><rect width="1024" height="1024" fill="url(#g)"/><path d="M91 1064V551c-6-140 4-210 40-280 44 96 279 106 381 110 102-4 337-14 381-110 36 70 46 140 40 280v513Z" fill="#14122E"/><circle cx="326" cy="600" r="205" fill="#3F3B92"/><circle cx="698" cy="600" r="205" fill="#3F3B92"/><circle cx="326" cy="600" r="150" fill="#D4801C"/><circle cx="326" cy="600" r="123" fill="#F5B53F"/><circle cx="326" cy="604.5" r="64.5" fill="#14132A"/><circle cx="301.5" cy="580" r="19.4" fill="#fff"/><circle cx="698" cy="600" r="150" fill="#D4801C"/><circle cx="698" cy="600" r="123" fill="#F5B53F"/><circle cx="698" cy="604.5" r="64.5" fill="#14132A"/><circle cx="673.5" cy="580" r="19.4" fill="#fff"/><path d="M512 678c21.5 0 39 16.8 39 43.2 0 31.2-30.4 68.8-39 76.8-8.6-8-39-45.6-39-76.8 0-26.4 17.5-43.2 39-43.2Z" fill="#F0A030"/></g></svg>
